<?xml version="1.0" encoding="UTF-8" standalone="no"?>
<!-- Created with Inkscape (http://www.inkscape.org/) -->

<svg
   xmlns:dc="http://purl.org/dc/elements/1.1/"
   xmlns:cc="http://creativecommons.org/ns#"
   xmlns:rdf="http://www.w3.org/1999/02/22-rdf-syntax-ns#"
   xmlns:svg="http://www.w3.org/2000/svg"
   xmlns="http://www.w3.org/2000/svg"
   xmlns:sodipodi="http://sodipodi.sourceforge.net/DTD/sodipodi-0.dtd"
   xmlns:inkscape="http://www.inkscape.org/namespaces/inkscape"
   version="1.1"
   id="svg2"
   width="42.632809"
   height="37.408199"
   viewBox="0 0 42.632809 37.408199"
   sodipodi:docname="Cart.svg"
   inkscape:version="0.92.4 (5da689c313, 2019-01-14)">
  <metadata
     id="metadata8">
    <rdf:RDF>
      <cc:Work
         rdf:about="">
        <dc:format>image/svg+xml</dc:format>
        <dc:type
           rdf:resource="http://purl.org/dc/dcmitype/StillImage" />
        <dc:title></dc:title>
      </cc:Work>
    </rdf:RDF>
  </metadata>
  <defs
     id="defs6" />
  <sodipodi:namedview
     pagecolor="#ffffff"
     bordercolor="#666666"
     borderopacity="1"
     objecttolerance="10"
     gridtolerance="10"
     guidetolerance="10"
     inkscape:pageopacity="0"
     inkscape:pageshadow="2"
     inkscape:window-width="1920"
     inkscape:window-height="1017"
     id="namedview4"
     showgrid="false"
     inkscape:zoom="0.52149125"
     inkscape:cx="-177.22895"
     inkscape:cy="273.15983"
     inkscape:window-x="-8"
     inkscape:window-y="-8"
     inkscape:window-maximized="1"
     inkscape:current-layer="svg2" />
  <path
     style="fill:none;stroke:#000000;stroke-width:2;stroke-linecap:round;stroke-linejoin:round;stroke-miterlimit:4;stroke-dasharray:none;stroke-opacity:1"
     d="M 3.49805,1 C 2.11366,1 1,2.1156 1,3.5 1,4.8844 2.11366,5.9981 3.49805,5.9981 H 8.2461 l 4.32031,18.9433 29.0664,-3.6445 V 3.8399 l -28.03515,-0.07 c 0.01,-0.09 0.0254,-0.177 0.0254,-0.2695 0,-1.3844 -1.11366,-2.5 -2.49805,-2.5 z m 8.9082,24.459 c -1.21488,0 -2.19336,0.9785 -2.19336,2.1934 0,1.2148 0.97848,2.1933 2.19336,2.1933 h 0.27735 a 3.4756095,3.4756095 0 0 0 -1.88086,3.0879 3.4756095,3.4756095 0 0 0 3.47461,3.4746 3.4756095,3.4756095 0 0 0 3.47656,-3.4746 3.4756095,3.4756095 0 0 0 -1.88672,-3.0879 h 18.74805 a 3.4756095,3.4756095 0 0 0 -1.88086,3.0879 3.4756095,3.4756095 0 0 0 3.47656,3.4746 3.4756095,3.4756095 0 0 0 3.47461,-3.4746 3.4756095,3.4756095 0 0 0 -1.88477,-3.0879 h 0.10352 c 1.21488,0 2.19336,-0.9785 2.19336,-2.1933 0,-1.2149 -0.97848,-2.1934 -2.19336,-2.1934 z"
     id="path828"
     inkscape:connector-curvature="0" />
</svg>
