<?xml version="1.0" encoding="UTF-8" standalone="no"?>
<!-- Created with Inkscape (http://www.inkscape.org/) -->

<svg
   xmlns:dc="http://purl.org/dc/elements/1.1/"
   xmlns:cc="http://creativecommons.org/ns#"
   xmlns:rdf="http://www.w3.org/1999/02/22-rdf-syntax-ns#"
   xmlns:svg="http://www.w3.org/2000/svg"
   xmlns="http://www.w3.org/2000/svg"
   xmlns:sodipodi="http://sodipodi.sourceforge.net/DTD/sodipodi-0.dtd"
   xmlns:inkscape="http://www.inkscape.org/namespaces/inkscape"
   version="1.1"
   id="svg2"
   width="41.914902"
   height="35.363602"
   viewBox="0 0 41.914902 35.363601"
   sodipodi:docname="Category.svg"
   inkscape:version="0.92.4 (5da689c313, 2019-01-14)">
  <metadata
     id="metadata8">
    <rdf:RDF>
      <cc:Work
         rdf:about="">
        <dc:format>image/svg+xml</dc:format>
        <dc:type
           rdf:resource="http://purl.org/dc/dcmitype/StillImage" />
        <dc:title></dc:title>
      </cc:Work>
    </rdf:RDF>
  </metadata>
  <defs
     id="defs6" />
  <sodipodi:namedview
     pagecolor="#ffffff"
     bordercolor="#666666"
     borderopacity="1"
     objecttolerance="10"
     gridtolerance="10"
     guidetolerance="10"
     inkscape:pageopacity="0"
     inkscape:pageshadow="2"
     inkscape:window-width="1920"
     inkscape:window-height="1017"
     id="namedview4"
     showgrid="false"
     inkscape:zoom="0.52149125"
     inkscape:cx="-494.58556"
     inkscape:cy="268.40674"
     inkscape:window-x="-8"
     inkscape:window-y="-8"
     inkscape:window-maximized="1"
     inkscape:current-layer="svg2" />
  <path
     id="rect849"
     style="opacity:1;fill:none;fill-opacity:1;stroke:#000000;stroke-width:2;stroke-linecap:round;stroke-linejoin:round;stroke-miterlimit:4;stroke-dasharray:none;stroke-dashoffset:0;stroke-opacity:1"
     d="m 23.36626,18.3181 h 15.65766 c 1.0476,0 1.89098,0.8434 1.89098,1.891 v 12.2635 c 0,1.0476 -0.84338,1.891 -1.89098,1.891 H 23.36626 c -1.0476,0 -1.89098,-0.8434 -1.89098,-1.891 V 20.2091 c 0,-1.0476 0.84338,-1.891 1.89098,-1.891 z m -20.47528,0 h 15.42397 c 1.0476,0 1.89098,0.8434 1.89098,1.891 v 12.2635 c 0,1.0476 -0.84338,1.891 -1.89098,1.891 H 2.89098 C 1.84338,34.3636 1,33.5202 1,32.4726 V 20.2091 c 0,-1.0476 0.84338,-1.891 1.89098,-1.891 z M 23.36626,1 h 15.65766 c 1.0476,0 1.89098,0.8434 1.89098,1.891 v 12.2635 c 0,1.0476 -0.84338,1.891 -1.89098,1.891 H 23.36626 c -1.0476,0 -1.89098,-0.8434 -1.89098,-1.891 V 2.891 C 21.47528,1.8434 22.31866,1 23.36626,1 Z M 2.89098,1 h 15.42397 c 1.0476,0 1.89098,0.8434 1.89098,1.891 v 12.2635 c 0,1.0476 -0.84338,1.891 -1.89098,1.891 H 2.89098 C 1.84338,17.0455 1,16.2021 1,15.1545 V 2.891 C 1,1.8434 1.84338,1 2.89098,1 Z"
     inkscape:connector-curvature="0" />
</svg>
