<?xml version="1.0" encoding="UTF-8" standalone="no"?>
<!-- Created with Inkscape (http://www.inkscape.org/) -->

<svg
   xmlns:dc="http://purl.org/dc/elements/1.1/"
   xmlns:cc="http://creativecommons.org/ns#"
   xmlns:rdf="http://www.w3.org/1999/02/22-rdf-syntax-ns#"
   xmlns:svg="http://www.w3.org/2000/svg"
   xmlns="http://www.w3.org/2000/svg"
   xmlns:sodipodi="http://sodipodi.sourceforge.net/DTD/sodipodi-0.dtd"
   xmlns:inkscape="http://www.inkscape.org/namespaces/inkscape"
   version="1.1"
   id="svg2"
   width="42.632809"
   height="37.408199"
   viewBox="0 0 42.632809 37.408199"
   sodipodi:docname="COD.svg"
   inkscape:version="0.92.4 (5da689c313, 2019-01-14)">
  <metadata
     id="metadata8">
    <rdf:RDF>
      <cc:Work
         rdf:about="">
        <dc:format>image/svg+xml</dc:format>
        <dc:type
           rdf:resource="http://purl.org/dc/dcmitype/StillImage" />
        <dc:title></dc:title>
      </cc:Work>
    </rdf:RDF>
  </metadata>
  <defs
     id="defs6" />
  <sodipodi:namedview
     pagecolor="#ffffff"
     bordercolor="#666666"
     borderopacity="1"
     objecttolerance="10"
     gridtolerance="10"
     guidetolerance="10"
     inkscape:pageopacity="0"
     inkscape:pageshadow="2"
     inkscape:window-width="1920"
     inkscape:window-height="1017"
     id="namedview4"
     showgrid="false"
     inkscape:zoom="8.34386"
     inkscape:cx="29.754474"
     inkscape:cy="6.5378954"
     inkscape:window-x="1912"
     inkscape:window-y="-8"
     inkscape:window-maximized="1"
     inkscape:current-layer="svg2"
     inkscape:pagecheckerboard="true" />
  <path
     inkscape:connector-curvature="0"
     id="path819"
     d="m 13.903886,34.180858 c -3.233213,-1.715529 -3.402961,-1.792256 -3.9650186,-1.792256 -0.4793122,0 -0.5731343,0.04813 -0.5731343,0.293877 0,0.282523 -0.074166,0.292308 -1.919085,0.253454 l -1.9190736,-0.04044 -0.03895,-3.465858 c -0.029986,-2.676128 0.0032,-3.492429 0.1448416,-3.582473 0.1010572,-0.06414 0.9556471,-0.117619 1.8991076,-0.118836 1.5515972,-0.0021 1.7221141,0.02348 1.7858325,0.267178 0.057945,0.22144 0.2652138,0.285862 1.1644098,0.361874 1.15917,0.09796 1.52066,0.256197 3.025303,1.324021 l 0.816333,0.579345 2.191587,0.07438 c 2.246181,0.07619 2.700832,0.185307 2.984849,0.716001 0.264104,0.493473 0.172875,1.264806 -0.201048,1.699949 l -0.349207,0.406374 -2.294053,0.07246 -2.294052,0.07246 -0.04589,0.399128 c -0.02999,0.260273 0.03308,0.429414 0.181039,0.486206 0.283899,0.108944 0.29949,0.490613 0.02006,0.490613 -0.260092,0 -0.615372,-0.348738 -0.733065,-0.719576 -0.09241,-0.290985 0.135226,-0.863298 0.418517,-1.052457 0.08761,-0.05848 1.079339,-0.107407 2.203742,-0.108624 1.847021,-0.0021 2.081234,-0.03116 2.426013,-0.302403 0.431921,-0.339753 0.487423,-0.787841 0.156154,-1.260782 -0.212797,-0.303812 -0.328762,-0.321943 -2.063916,-0.322711 -2.230131,-0.001 -2.727424,-0.126306 -3.936707,-0.992111 -1.256364,-0.899505 -1.609531,-1.034785 -2.701387,-1.034785 H 9.3588714 l 0.039591,2.498418 0.03959,2.498429 0.7241866,0.08889 c 0.502586,0.06168 1.37615,0.427269 2.854968,1.194898 1.399595,0.726502 2.294223,1.105568 2.607053,1.104629 0.70072,-0.0021 1.524427,-0.449016 5.690354,-3.08756 3.486965,-2.2085 3.765742,-2.415662 3.765742,-2.798228 0,-0.745145 -0.479888,-0.603719 -2.476702,0.729917 -1.701464,1.136387 -2.085631,1.31162 -2.085631,0.951357 0,-0.150956 3.30694,-2.400008 3.804447,-2.587417 0.428815,-0.161521 0.90244,0.03009 1.201172,0.486045 0.482322,0.736107 0.232912,0.96252 -4.076149,3.700253 -2.194158,1.394046 -4.229656,2.646984 -4.523341,2.784303 -0.903731,0.422551 -1.882791,0.33573 -3.020362,-0.267861 z M 8.9312177,29.419462 V 26.30548 H 7.4828558 6.0344933 v 3.113982 3.113971 h 1.4483625 1.4483619 z m -2.0297664,2.272411 c -0.1995,-0.161553 -0.3238207,-0.422296 -0.3238207,-0.679218 0,-0.418251 0.4608829,-0.941433 0.8293202,-0.941433 0.3519076,0 0.944923,0.597422 0.944923,0.951944 0,0.418731 -0.469303,0.930922 -0.8529684,0.930922 -0.1504973,0 -0.4193501,-0.117993 -0.5974541,-0.262215 z M 7.683615,31.298134 c 0.2764934,-0.276494 0.1499745,-0.647567 -0.2207999,-0.647567 -0.3514166,0 -0.5032799,0.370219 -0.2680951,0.653607 0.2200956,0.265192 0.2176305,0.265224 0.488895,-0.0064 z m 5.823896,-4.230382 c -0.04749,-0.04749 -0.08633,-2.031613 -0.08633,-4.409126 v -4.322752 l 5.250302,0.03799 5.250313,0.03799 0.03842,4.262748 c 0.02988,3.312735 -0.0021,4.289255 -0.144831,4.381711 -0.206938,0.13432 -10.173902,0.145333 -10.307858,0.01142 z m 9.907333,-4.310758 v -3.838158 h -1.370516 -1.370504 l -0.04162,1.339729 -0.04162,1.339739 -1.919085,0.04044 -1.919073,0.04045 V 20.299052 18.9189 h -1.448363 -1.448362 v 3.838158 3.838158 h 4.779591 4.779601 z m -3.331239,-2.679468 v -1.15869 H 18.635242 17.18688 v 1.15869 1.15869 h 1.448362 1.448363 z m 1.339739,-2.857038 c -0.131695,-0.04642 -0.181049,-0.554097 -0.181049,-1.862206 0,-1.715145 -0.01377,-1.798381 -0.296257,-1.798381 -0.16294,0 -0.464148,-0.167903 -0.669357,-0.373101 -0.318496,-0.318507 -0.362622,-0.466037 -0.301529,-1.008097 0.05698,-0.505467 0.01377,-0.687285 -0.211686,-0.891342 -0.226029,-0.204558 -0.265961,-0.373997 -0.197633,-0.838572 0.04706,-0.320214 0.08569,-0.6799752 0.08569,-0.7994724 0,-0.1194866 -0.03852,-0.4792487 -0.08569,-0.7994625 C 19.49775,8.386933 19.537554,8.21568 19.76036,8.0140884 19.985685,7.8101705 20.027388,7.6239349 19.973455,7.0625711 19.913163,6.434693 19.94635,6.3331556 20.304202,6.051668 c 0.218794,-0.1721068 0.519383,-0.3129253 0.667959,-0.3129253 0.246475,0 0.270134,-0.1332098 0.270134,-1.5207779 V 2.6971869 h 4.200256 4.200246 v 1.5773892 1.5773998 l 1.516808,0.8848217 c 1.749816,1.0207314 2.104093,1.0958466 2.104093,0.4461031 V 6.7441928 l 1.919084,0.040444 1.919074,0.040444 0.03874,3.5011592 c 0.0349,3.150648 0.01494,3.505907 -0.199158,3.548496 -0.130862,0.02604 -1.011885,0.02721 -1.957843,0.0021 l -1.719915,-0.04471 v -0.435762 c 0,-0.545891 -0.11048,-0.519235 -2.100123,0.5068 l -1.448362,0.746906 -0.07246,1.301365 -0.07246,1.301366 -3.983,0.01558 c -2.190647,0.0085 -4.064464,-0.01323 -4.164038,-0.04823 z M 29.208283,13.00765 V 9.2690015 l -0.431718,-0.4136197 -0.431729,-0.4136196 -0.03895,3.3130128 -0.03895,3.313002 -0.362088,0.08185 c -0.218868,0.04951 -0.448024,0.263442 -0.579345,0.540864 -0.249954,0.528048 -0.490709,0.577862 -2.426003,0.501978 -1.029343,-0.04034 -1.194897,-0.08238 -1.194897,-0.303428 0,-0.301752 -0.373603,-0.661098 -0.83281,-0.80103 -0.280485,-0.08548 -0.32588,-0.198839 -0.32588,-0.81374 0,-0.697242 -0.01067,-0.714412 -0.434515,-0.714412 h -0.434503 v 1.593193 1.593194 h 3.765742 3.765732 z m -2.346908,2.369669 c 0.089,-0.195317 0.361363,-0.458321 0.605255,-0.584446 l 0.443446,-0.229304 -0.03884,-3.362357 -0.03884,-3.3623464 -0.941443,-0.037029 C 25.643844,7.7527482 25.36131,7.677729 25.012092,7.3028888 24.61131,6.8726966 24.637369,6.2411369 25.073879,5.8045846 25.397337,5.4811375 25.544249,5.4490382 26.703291,5.4485367 L 27.977188,5.4480031 27.503521,5.1592056 C 27.243002,5.0003633 26.955539,4.7073187 26.864716,4.5079894 26.706663,4.1610974 26.644695,4.14556 25.419309,4.14556 c -0.971601,0 -1.280279,0.046634 -1.280279,0.1934921 0,0.1063928 -0.263976,0.4304696 -0.586612,0.7201101 -0.497688,0.4467754 -0.563445,0.5699329 -0.433735,0.8122888 0.08409,0.1571243 0.217716,0.3257415 0.29695,0.3747121 0.219146,0.1354402 0.171872,1.1720611 -0.06232,1.3664282 -0.183482,0.1522688 -0.261212,0.916302 -0.229316,2.253993 0.0043,0.1593227 0.0064,0.5915527 0.0043,0.9605237 -0.0011,0.420802 0.07854,0.737814 0.214386,0.850535 0.273837,0.227267 0.28168,1.134701 0.01238,1.436347 -0.187025,0.20952 -0.284412,0.738272 -0.245749,1.334254 0.0085,0.130115 0.145151,0.270507 0.30379,0.311997 0.15864,0.04151 0.403055,0.276792 0.543137,0.522904 0.253529,0.445442 0.260338,0.44748 1.498753,0.448387 1.180363,8.75e-4 1.252362,-0.01729 1.40588,-0.354202 z m -2.416644,-4.215954 c -0.871056,-0.732947 -0.695822,-2.130643 0.328356,-2.6190472 1.436677,-0.6851082 2.837414,0.8859107 2.021465,2.2672152 -0.474254,0.802834 -1.611474,0.973116 -2.349821,0.351832 z m 1.800996,-0.41919 C 26.826,10.161902 26.616949,9.2047709 25.851667,8.9379884 24.678123,8.5288933 23.836541,9.9515278 24.77472,10.758513 c 0.507463,0.436499 1.023911,0.430768 1.471007,-0.01633 z m 4.905939,2.619645 c 0.643831,-0.347917 1.382424,-0.678983 1.641321,-0.73569 l 0.470711,-0.103085 v -2.23345 -2.233451 h -0.412745 c -0.245525,0 -0.964333,-0.3332968 -1.774243,-0.8226827 -1.94175,-1.1732883 -2.478922,-1.3498557 -4.106722,-1.3498557 -1.247582,0 -1.385754,0.027959 -1.591646,0.3218999 -0.290153,0.4142492 -0.284486,0.4880946 0.06424,0.8367794 0.24003,0.2400403 0.48278,0.2896725 1.416679,0.2896725 h 1.127018 l 0.828274,0.8370143 0.828275,0.8370035 v 2.4942258 c 0,1.8052 0.04674,2.494224 0.16914,2.494224 0.09305,0 0.695908,-0.284657 1.339729,-0.632584 z m 5.531181,-0.175863 c -0.04834,-0.125996 -0.08793,-1.529657 -0.08793,-3.119222 V 7.1766153 l -1.412144,0.041511 -1.412154,0.041405 -0.03906,3.0777747 -0.03906,3.077764 h 1.539154 c 1.344007,0 1.528013,-0.02903 1.451243,-0.229103 z m -2.159231,-0.608083 c -0.328228,-0.362686 -0.310887,-0.836022 0.04365,-1.190522 0.723845,-0.723846 1.85685,0.05965 1.417693,0.980415 -0.242718,0.508893 -1.081739,0.629521 -1.461306,0.210107 z m 1.028905,-0.558013 c 0.05624,-0.392202 -0.379973,-0.575717 -0.672687,-0.283003 -0.17963,0.179619 -0.183578,0.253539 -0.0238,0.446039 0.255482,0.307824 0.641975,0.217364 0.696506,-0.163036 z M 22.88989,12.850675 c 0.298007,-0.247329 0.301294,-0.652433 0.0075,-0.946053 -0.316831,-0.316831 -1.979857,-0.316831 -2.296677,0 -0.310802,0.310801 -0.285831,0.729052 0.05795,0.969818 0.366602,0.256773 1.912905,0.240307 2.231092,-0.0238 z m -0.373036,-1.781958 c 0.235803,-0.235804 0.219412,-0.766733 -0.03009,-0.973767 -0.126391,-0.1048988 -0.607955,-0.1529196 -1.267314,-0.1263588 -0.969605,0.039057 -1.067461,0.070964 -1.108769,0.3612338 -0.02497,0.175117 0.02625,0.452122 0.113724,0.615553 0.136304,0.254671 0.299052,0.297143 1.13882,0.297143 0.56894,0 1.05267,-0.07288 1.153589,-0.173804 z m 0,-1.882877 c 0.09561,-0.095615 0.173803,-0.3106736 0.173803,-0.4779569 0,-0.5085729 -0.290473,-0.6517604 -1.322142,-0.6517604 -1.256429,0 -1.656357,0.3197975 -1.279809,1.0233778 0.127105,0.2375112 0.310086,0.280143 1.202132,0.280143 0.625275,0 1.122739,-0.070537 1.226016,-0.1738035 z m 0.286417,-1.7896947 c 0.779155,-0.545741 0.143284,-1.2228885 -1.148349,-1.2228885 -0.879497,0 -1.281645,0.227224 -1.281645,0.7241759 0,0.1479362 0.102445,0.371404 0.227608,0.4965784 0.307451,0.3074615 1.764457,0.3088701 2.202386,0.00213 z M 22.545826,5.3251871 c 0,-0.3427409 0.08057,-0.4363282 0.470711,-0.5465521 0.354832,-0.1002035 0.504838,-0.2480437 0.6093,-0.6003034 l 0.138577,-0.4672963 h 1.676334 1.676322 l 0.167455,0.4436487 c 0.106179,0.2813168 0.329785,0.504902 0.611102,0.6110921 0.266185,0.1005236 0.443638,0.2706242 0.443638,0.4253794 0,0.1418536 0.04887,0.2588004 0.108634,0.2598889 0.05976,0.00107 0.255268,0.041298 0.434504,0.089319 0.319498,0.085584 0.32588,0.062854 0.32588,-1.1606748 V 3.1316903 h -3.765732 -3.765742 v 1.3035315 1.3035209 h 0.434503 c 0.381339,0 0.434514,-0.050582 0.434514,-0.4135556 z"
     style="fill:#141414;stroke:#000000;stroke-width:0.32;stroke-miterlimit:4;stroke-dasharray:none" />
</svg>
