<?xml version="1.0" encoding="UTF-8" standalone="no"?>
<!-- Created with Inkscape (http://www.inkscape.org/) -->

<svg
   xmlns:dc="http://purl.org/dc/elements/1.1/"
   xmlns:cc="http://creativecommons.org/ns#"
   xmlns:rdf="http://www.w3.org/1999/02/22-rdf-syntax-ns#"
   xmlns:svg="http://www.w3.org/2000/svg"
   xmlns="http://www.w3.org/2000/svg"
   xmlns:sodipodi="http://sodipodi.sourceforge.net/DTD/sodipodi-0.dtd"
   xmlns:inkscape="http://www.inkscape.org/namespaces/inkscape"
   version="1.1"
   id="svg2"
   width="42.632809"
   height="37.408199"
   viewBox="0 0 42.632809 37.408199"
   sodipodi:docname="Customization.svg"
   inkscape:version="0.92.4 (5da689c313, 2019-01-14)">
  <metadata
     id="metadata8">
    <rdf:RDF>
      <cc:Work
         rdf:about="">
        <dc:format>image/svg+xml</dc:format>
        <dc:type
           rdf:resource="http://purl.org/dc/dcmitype/StillImage" />
        <dc:title></dc:title>
      </cc:Work>
    </rdf:RDF>
  </metadata>
  <defs
     id="defs6" />
  <sodipodi:namedview
     pagecolor="#ffffff"
     bordercolor="#666666"
     borderopacity="1"
     objecttolerance="10"
     gridtolerance="10"
     guidetolerance="10"
     inkscape:pageopacity="0"
     inkscape:pageshadow="2"
     inkscape:window-width="1920"
     inkscape:window-height="1017"
     id="namedview4"
     showgrid="false"
     inkscape:zoom="11.8"
     inkscape:cx="34.333871"
     inkscape:cy="10.25079"
     inkscape:window-x="-8"
     inkscape:window-y="-8"
     inkscape:window-maximized="1"
     inkscape:current-layer="svg2"
     inkscape:pagecheckerboard="true" />
  <path
     inkscape:connector-curvature="0"
     id="path831"
     d="m 6.4645529,33.554952 c -0.0791,-0.0791 -0.143821,-0.196379 -0.143821,-0.260618 0,-0.06424 0.636167,-1.746345 1.413705,-3.738015 l 1.413704,-3.621217 3.5495851,-3.557219 c 1.952271,-1.956471 3.537341,-3.569462 3.522378,-3.584425 -0.01496,-0.01496 -0.673004,-0.05734 -1.462312,-0.09417 -1.620313,-0.07561 -2.313599,-0.16132 -3.075732,-0.380258 -0.668977,-0.19218 -1.8118951,-0.753725 -2.3437501,-1.151548 -1.193274,-0.892557 -2.162669,-2.232018 -2.63209,-3.636892 -0.274204,-0.820631 -0.354927,-1.357631 -0.354927,-2.361113 0,-1.009074 0.07888,-1.5277422 0.363651,-2.391089 0.197288,-0.5981266 0.312996,-0.7436773 0.591201,-0.7436773 0.204957,0 0.319688,0.1044721 2.413089,2.1973303 l 2.1979021,2.197331 1.551658,-1.552488 1.551658,-1.5524882 -2.211188,-2.2140162 C 10.489695,4.7878435 10.484737,4.7817516 10.65505,4.4635194 c 0.116319,-0.217344 1.268304,-0.5799216 2.257479,-0.7105225 0.637105,-0.084117 1.695549,-0.042646 2.34375,0.091831 3.037759,0.6302178 5.32706,2.9968354 5.857764,6.0555979 0.04953,0.2854762 0.115857,0.9910222 0.147391,1.5678782 0.03153,0.576856 0.07454,1.308549 0.09558,1.625984 l 0.03824,0.577155 4.840669,-4.8307981 c 5.337636,-5.3267526 5.025763,-5.0540346 5.85961,-5.1239414 0.468061,-0.03924 0.955097,0.08129 1.354119,0.3351133 0.426897,0.2715551 2.476836,2.3834416 2.623947,2.7032393 0.199072,0.4327562 0.266462,0.7853902 0.228263,1.1944492 -0.07597,0.8135365 0.202336,0.4979399 -5.306573,6.0176447 l -5.014409,5.024236 4.868462,4.878107 c 5.090465,5.100552 5.075106,5.083713 5.331362,5.844906 0.149495,0.444061 0.149495,1.372344 0,1.816406 -0.330193,0.980815 -1.047126,1.697747 -2.02794,2.027941 -0.228354,0.07687 -0.493016,0.108491 -0.908204,0.108491 -0.646207,0 -0.998165,-0.08932 -1.552734,-0.394077 -0.245957,-0.13516 -1.380211,-1.233031 -4.790137,-4.636483 -3.98417,-3.976606 -4.467861,-4.478898 -4.467773,-4.639604 1.17e-4,-0.248494 0.22044,-0.449485 0.465356,-0.42456 0.157813,0.01606 0.834993,0.668555 4.591848,4.424465 4.171959,4.170908 4.428562,4.415945 4.816416,4.599317 0.370084,0.174971 0.46065,0.19358 0.937024,0.192535 0.453917,-9.96e-4 0.578109,-0.0244 0.891936,-0.168116 0.447167,-0.204773 0.897085,-0.661357 1.11715,-1.1337 0.133483,-0.286505 0.157135,-0.416175 0.15767,-0.864412 5.86e-4,-0.475758 -0.01832,-0.567467 -0.193126,-0.9375 -0.183909,-0.389312 -0.43915,-0.655811 -5.022353,-5.243887 l -4.828597,-4.83373 -0.32496,0.320924 -0.324961,0.320923 3.901563,3.901888 3.901563,3.901889 -0.0188,0.229284 c -0.01548,0.188816 -0.05379,0.250103 -0.21704,0.347246 -0.319704,0.190241 -0.830232,0.68531 -0.951171,0.922369 -0.145597,0.285395 -0.353099,0.421677 -0.56403,0.370441 -0.109461,-0.02659 -1.413428,-1.289795 -4.043622,-3.91722 l -3.882062,-3.877976 -4.379657,4.372394 -4.379657,4.372395 -3.621317,1.413365 c -1.9917261,0.777352 -3.6738331,1.413367 -3.7380161,1.413367 -0.06419,0 -0.181418,-0.06472 -0.26052,-0.143822 z m 2.155984,-1.494116 c 0.507568,-0.199376 0.922852,-0.367708 0.922852,-0.374071 0,-0.0064 -0.27372,-0.284358 -0.608266,-0.617765 l -0.608266,-0.606196 -0.364532,0.929509 c -0.200493,0.511229 -0.379593,0.967044 -0.398,1.012922 -0.02218,0.05527 -0.0053,0.0724 0.04995,0.05076 0.04588,-0.01796 0.498697,-0.195782 1.006266,-0.395157 z m 3.1787111,-1.245709 c 0.612305,-0.240074 1.164663,-0.455296 1.227462,-0.478273 0.09627,-0.03522 -0.151459,-0.307535 -1.579401,-1.736113 -0.93147,-0.931885 -1.7056921,-1.682227 -1.7204931,-1.667426 -0.0148,0.0148 -0.257906,0.613641 -0.540232,1.330755 l -0.51332,1.303844 0.88357,0.888662 c 0.7541521,0.758499 0.9015541,0.881806 1.0063511,0.841855 0.06753,-0.02574 0.623758,-0.243231 1.236063,-0.483304 z M 29.289482,14.392565 c 0,-0.07659 -3.585098,-3.662541 -3.661671,-3.662541 -0.03238,0 -3.519539,3.460598 -7.749251,7.690218 l -7.690386,7.690219 1.860011,1.860693 1.860011,1.860692 7.690643,-7.690476 c 4.229854,-4.229762 7.690643,-7.716724 7.690643,-7.748805 z m -1.54304,10.122466 -3.640499,-3.646632 -0.30954,0.305695 -0.309541,0.305696 3.638376,3.638724 3.638376,3.638725 0.311663,-0.297787 0.311663,-0.297788 z m -8.897018,-8.296117 1.717401,-1.71814 -0.06234,-0.933227 c -0.03429,-0.513274 -0.08793,-1.421019 -0.119214,-2.017211 -0.03128,-0.596191 -0.09745,-1.297091 -0.147037,-1.5575542 -0.186009,-0.976995 -0.581529,-1.9135939 -1.145588,-2.7127692 l -0.305211,-0.4324325 -4.653337,4.6511829 -4.6533371,4.651183 0.221322,0.187718 c 0.3330791,0.282506 1.0971501,0.720104 1.5955171,0.913782 0.830485,0.322747 1.479241,0.4522 2.581726,0.515159 1.954337,0.111604 2.725877,0.153402 2.988654,0.161905 l 0.264044,0.0085 z m -5.397798,-1.026152 c -0.409296,-0.413658 -0.744175,-0.797292 -0.744175,-0.852519 0,-0.220877 0.240406,-0.489617 2.063329,-2.306508 1.76809,-1.76224 1.909804,-1.889649 2.101808,-1.889649 0.18611,0 0.277373,0.07225 0.950063,0.752105 0.606808,0.613276 0.744175,0.783255 0.744175,0.920856 0,0.143477 -0.295993,0.465214 -1.976384,2.148285 -1.85844,1.861405 -1.988862,1.979535 -2.185511,1.979535 -0.190264,0 -0.27626,-0.06785 -0.953305,-0.752105 z m 1.278056,-0.596309 0.289311,-0.293727 -0.306162,-0.306162 -0.306161,-0.306161 -0.306161,0.306161 -0.306162,0.306162 0.28931,0.293727 c 0.159121,0.16155 0.304477,0.293727 0.323013,0.293727 0.01854,0 0.163892,-0.132177 0.323012,-0.293727 z m 1.213061,-1.21286 c 0.154183,-0.151864 0.280333,-0.304467 0.280333,-0.339116 0,-0.03465 -0.126147,-0.187249 -0.280327,-0.339112 l -0.280328,-0.276111 -0.318156,0.322157 -0.318156,0.322159 0.288664,0.29307 c 0.158765,0.16119 0.301933,0.293071 0.31815,0.293071 0.01622,0 0.155637,-0.124253 0.30982,-0.276118 z m 1.263781,-1.875359 -0.305774,-0.309619 -0.30962,0.305773 -0.309619,0.305774 0.305773,0.30962 0.305774,0.309619 0.30962,-0.305773 0.309619,-0.305774 z m -7.120707,2.751638 1.215211,-1.216244 -1.9015711,-1.900896 C 8.1292959,9.8730208 7.4876529,9.2700318 7.4670659,9.3267498 c -0.113627,0.313055 -0.217872,0.9402972 -0.247824,1.4911642 -0.06247,1.148962 0.16289,2.233192 0.682021,3.28125 0.265105,0.535213 0.83334,1.376953 0.929542,1.376953 0.02189,0 0.586647,-0.54731 1.2550121,-1.216245 z m 19.043725,-3.367527 -1.860043,-1.8607262 -0.513889,0.511507 -0.513888,0.5115072 1.860044,1.860726 1.860044,1.860726 0.513888,-0.511508 0.513888,-0.511507 z M 35.310193,8.327831 C 35.449055,8.0493502 35.444013,7.4309139 35.300638,7.1558045 35.164342,6.8942795 33.131057,4.8572163 32.879359,4.7300269 32.598565,4.5881343 32.201973,4.5512524 31.883094,4.6373773 31.62875,4.706072 31.438491,4.8772391 29.74272,6.5629692 l -1.861217,1.8501951 1.86087,1.8615517 1.86087,1.861552 1.802307,-1.801603 C 34.396819,9.3437818 35.253908,8.4407073 35.310193,8.327831 Z M 16.893107,7.4525733 C 17.916299,6.4285106 18.106923,6.2116742 18.047228,6.1397468 17.922653,5.9896438 17.146956,5.4792482 16.721123,5.2671928 15.774425,4.7957579 14.946997,4.609999 13.791435,4.6094731 12.977743,4.609104 12.698982,4.6424251 12.038775,4.8189798 l -0.229223,0.0613 1.898807,1.8994813 c 1.044343,1.0447147 1.912378,1.8994813 1.928965,1.8994813 0.01659,0 0.581689,-0.5520009 1.255783,-1.2266691 z M 32.77581,31.852863 c -0.299571,-0.106031 -0.703542,-0.530754 -0.785466,-0.825816 -0.145427,-0.523774 -0.0376,-0.945094 0.337981,-1.32068 0.543626,-0.543626 1.298253,-0.543775 1.825545,-3.52e-4 0.547129,0.563859 0.544599,1.281142 -0.0065,1.834579 -0.388037,0.389703 -0.853452,0.495667 -1.371586,0.312279 z m 0.764382,-0.934629 c 0.0791,-0.0791 0.143822,-0.212136 0.143822,-0.295632 0,-0.0835 -0.06472,-0.21653 -0.143822,-0.295632 -0.0791,-0.0791 -0.212135,-0.143821 -0.295632,-0.143821 -0.0835,0 -0.21653,0.06472 -0.295631,0.143821 -0.0791,0.0791 -0.143822,0.212136 -0.143822,0.295632 0,0.0835 0.06472,0.21653 0.143822,0.295632 0.0791,0.0791 0.212135,0.143821 0.295631,0.143821 0.0835,0 0.216531,-0.06472 0.295632,-0.143821 z"
     style="fill:#030303;stroke-width:0.05859375" />
</svg>
