<?xml version="1.0" encoding="UTF-8" standalone="no"?>
<!-- Created with Inkscape (http://www.inkscape.org/) -->

<svg
   xmlns:dc="http://purl.org/dc/elements/1.1/"
   xmlns:cc="http://creativecommons.org/ns#"
   xmlns:rdf="http://www.w3.org/1999/02/22-rdf-syntax-ns#"
   xmlns:svg="http://www.w3.org/2000/svg"
   xmlns="http://www.w3.org/2000/svg"
   xmlns:sodipodi="http://sodipodi.sourceforge.net/DTD/sodipodi-0.dtd"
   xmlns:inkscape="http://www.inkscape.org/namespaces/inkscape"
   version="1.1"
   id="svg2"
   width="42.632809"
   height="37.408199"
   viewBox="0 0 42.632809 37.408199"
   sodipodi:docname="Freedelivery.svg"
   inkscape:version="0.92.4 (5da689c313, 2019-01-14)">
  <metadata
     id="metadata8">
    <rdf:RDF>
      <cc:Work
         rdf:about="">
        <dc:format>image/svg+xml</dc:format>
        <dc:type
           rdf:resource="http://purl.org/dc/dcmitype/StillImage" />
        <dc:title></dc:title>
      </cc:Work>
    </rdf:RDF>
  </metadata>
  <defs
     id="defs6" />
  <sodipodi:namedview
     pagecolor="#ffffff"
     bordercolor="#666666"
     borderopacity="1"
     objecttolerance="10"
     gridtolerance="10"
     guidetolerance="10"
     inkscape:pageopacity="0"
     inkscape:pageshadow="2"
     inkscape:window-width="1920"
     inkscape:window-height="1017"
     id="namedview4"
     showgrid="false"
     inkscape:zoom="8.34386"
     inkscape:cx="43.184721"
     inkscape:cy="16.55301"
     inkscape:window-x="1912"
     inkscape:window-y="-8"
     inkscape:window-maximized="1"
     inkscape:current-layer="svg2" />
  <g
     id="g819">
    <path
       d="M 31.340808,13.040421 H 27.52443 l 0.156095,5.044913 h 8.705082 z M 5.4458665,28.851772 c -0.318992,0.02646 -0.776504,0.104692 -1.99559,0.06538 -0.5328,-0.100913 -0.978634,-0.436346 -0.978634,-0.978481 V 5.8409877 c 0,-0.5421354 0.436423,-0.9785197 0.978634,-0.9785197 l 22.7908915,1.89e-4 v 0 c 0.542211,0 0.978595,0.4363842 0.978595,0.9785197 v 4.5137003 h 5.240201 l 6.250015,6.439446 v 9.343748 l 1.451187,1.074217 -0.02268,1.756195 c 0,0 -2.967193,-0.154204 -4.593184,-0.115653 m -10.800415,0.06425 -8.517392,0.0076 m 13.926123,-3.197293 c -1.883565,-4.91e-4 -3.410646,1.526589 -3.410154,3.410155 6.04e-4,1.882809 1.527345,3.40868 3.410154,3.408189 1.882809,4.91e-4 3.409549,-1.52538 3.410153,-3.408189 4.92e-4,-1.883566 -1.526588,-3.410646 -3.410153,-3.410155 z m -5.389228,3.108964 c 0.156094,-2.841486 2.509719,-5.097486 5.390211,-5.097222 l -10e-4,-3.8e-5 v 0 c 2.86832,-2.64e-4 5.214122,2.236574 5.388131,5.060977 0.0012,0.0189 0.0023,0.03402 0.0033,0.05216 M 10.834453,25.727274 c -1.7992065,-4.54e-4 -3.2731095,1.392831 -3.4011215,3.159269 -0.0076,0.08277 -0.0076,0.166677 -0.0076,0.250961 6.04e-4,1.882809 1.527344,3.40868 3.4101545,3.408189 1.882809,4.91e-4 3.409549,-1.52538 3.410154,-3.408189 3.8e-5,-0.09109 -0.0035,-0.181417 -0.01134,-0.270992 -0.137575,-1.756914 -1.607207,-3.139654 -3.39961,-3.1392 z m -5.3902495,3.123855 c 0.148535,-2.848516 2.505411,-5.112416 5.3910055,-5.112189 l -7.18e-4,3.8e-5 v 0 c 2.880491,-2.65e-4 5.234116,2.255735 5.390211,5.097222"
       style="opacity:1;fill:none;fill-opacity:1;stroke:#000000;stroke-width:1;stroke-linecap:round;stroke-linejoin:round;stroke-miterlimit:4;stroke-dasharray:none;stroke-dashoffset:0;stroke-opacity:1"
       id="path839"
       inkscape:connector-curvature="0" />
    <text
       id="text814"
       y="19.597939"
       x="4.1715093"
       style="font-style:normal;font-variant:normal;font-weight:normal;font-stretch:normal;font-size:20.76623726px;line-height:1.25;font-family:sans-serif;-inkscape-font-specification:'sans-serif, Normal';font-variant-ligatures:normal;font-variant-caps:normal;font-variant-numeric:normal;font-feature-settings:normal;text-align:start;letter-spacing:0px;word-spacing:0px;writing-mode:lr-tb;text-anchor:start;fill:#000000;fill-opacity:1;stroke:none;stroke-width:1.11247706"
       xml:space="preserve"><tspan
         style="font-style:italic;font-variant:normal;font-weight:bold;font-stretch:normal;font-size:8.89981651px;font-family:sans-serif;-inkscape-font-specification:'sans-serif Bold Italic';stroke-width:1.11247706"
         y="19.597939"
         x="4.1715093"
         id="tspan812"
         sodipodi:role="line">Free</tspan></text>
  </g>
</svg>
