<?xml version="1.0" encoding="UTF-8" standalone="no"?>
<!-- Created with Inkscape (http://www.inkscape.org/) -->

<svg
   xmlns:dc="http://purl.org/dc/elements/1.1/"
   xmlns:cc="http://creativecommons.org/ns#"
   xmlns:rdf="http://www.w3.org/1999/02/22-rdf-syntax-ns#"
   xmlns:svg="http://www.w3.org/2000/svg"
   xmlns="http://www.w3.org/2000/svg"
   xmlns:sodipodi="http://sodipodi.sourceforge.net/DTD/sodipodi-0.dtd"
   xmlns:inkscape="http://www.inkscape.org/namespaces/inkscape"
   width="1080"
   height="686.63831"
   viewBox="0 0 285.75 181.67305"
   version="1.1"
   id="svg8"
   inkscape:version="0.92.4 (5da689c313, 2019-01-14)"
   sodipodi:docname="Preview2.svg">
  <defs
     id="defs2" />
  <sodipodi:namedview
     id="base"
     pagecolor="#ffffff"
     bordercolor="#666666"
     borderopacity="1.0"
     inkscape:pageopacity="0.0"
     inkscape:pageshadow="2"
     inkscape:zoom="0.35"
     inkscape:cx="734.28569"
     inkscape:cy="843.31915"
     inkscape:document-units="px"
     inkscape:current-layer="layer1"
     showgrid="false"
     units="px"
     inkscape:window-width="1920"
     inkscape:window-height="1017"
     inkscape:window-x="-8"
     inkscape:window-y="-8"
     inkscape:window-maximized="1" />
  <metadata
     id="metadata5">
    <rdf:RDF>
      <cc:Work
         rdf:about="">
        <dc:format>image/svg+xml</dc:format>
        <dc:type
           rdf:resource="http://purl.org/dc/dcmitype/StillImage" />
        <dc:title></dc:title>
      </cc:Work>
    </rdf:RDF>
  </metadata>
  <g
     inkscape:label="Layer 1"
     inkscape:groupmode="layer"
     id="layer1"
     transform="translate(334.13095,-8.8599026)">
    <g
       id="g1138"
       transform="matrix(0.54807755,0,0,0.54807755,-378.20213,-131.85279)"
       inkscape:export-xdpi="96"
       inkscape:export-ydpi="96">
      <path
         inkscape:connector-curvature="0"
         d="m 209.98845,304.90395 c 6.1659,-12.3511 25.2982,-27.13128 36.6525,-19.27966 8.0188,5.54511 -0.2885,19.85634 -3.6017,29.02543 -2.2236,6.15364 -4.5545,14.00629 -10.5932,16.52542 -5.9315,2.47441 -14.426,0.63088 -18.8559,-4.02542 -5.1777,-5.44229 -6.9569,-15.5249 -3.6017,-22.24577 z m 321.3647,268.45859 c 0,0 28.5953,-18.54408 37.7523,-32.35912 10.5401,-15.90177 15.2169,-35.57619 17.3781,-54.53112 1.1125,-9.75698 -2.397,-29.36291 -2.397,-29.36291 0,0 -2.9962,-40.14928 -35.3553,-21.57275 -32.3592,18.57654 -20.8489,35.99188 -35.9546,31.16064 -25.0565,-8.01378 -19.1316,-50.40212 -18.5765,-76.70311 0.3815,-18.07727 20.9735,-29.96214 14.981,-52.13414 -5.9924,-22.17198 -9.5879,-58.72582 -55.7296,-13.78259 -46.1417,44.94323 -67.1152,50.93566 -79.6993,-2.99622 -12.5841,-53.93187 -14.9811,-100.07358 -81.4971,-25.1682 -66.5159,74.90538 -37.905,111.45542 -83.894,109.66147 -25.6882,-1.00206 -41.947,-64.71825 -41.947,-64.71825 0,0 -36.5538,-44.34398 -70.7107,8.38941 -34.1568,52.73338 37.2755,70.10988 32.9584,107.2645 -3.606,31.03496 -55.7224,50.79946 -47.3402,80.89781 6.9542,24.97078 68.3137,37.15307 68.3137,37.15307 z"
         style="fill:#eefbff;fill-opacity:1;stroke:none;stroke-width:1px;stroke-linecap:butt;stroke-linejoin:miter;stroke-opacity:1"
         id="path964" />
      <g
         transform="translate(-5.0847458,6.779661)"
         id="g895">
        <path
           style="fill:none;stroke:#45b2ef;stroke-width:1px;stroke-linecap:round;stroke-linejoin:round;stroke-opacity:1"
           d="M 97.033898,562.71186 H 606.35593"
           id="path828"
           inkscape:connector-curvature="0" />
        <path
           style="fill:none;stroke:#45b2ef;stroke-width:1px;stroke-linecap:round;stroke-linejoin:round;stroke-opacity:1"
           d="m 161.86441,572.45763 h 35.59322"
           id="path830"
           inkscape:connector-curvature="0" />
        <path
           style="fill:none;stroke:#45b2ef;stroke-width:1px;stroke-linecap:round;stroke-linejoin:round;stroke-opacity:1"
           d="M 235.16949,572.45763 H 361.44068"
           id="path832"
           inkscape:connector-curvature="0" />
        <path
           style="fill:none;stroke:#45b2ef;stroke-width:1px;stroke-linecap:round;stroke-linejoin:round;stroke-opacity:1"
           d="m 383.05085,572.0339 h 75.84746"
           id="path834"
           inkscape:connector-curvature="0" />
        <path
           style="fill:none;stroke:#45b2ef;stroke-width:1px;stroke-linecap:round;stroke-linejoin:round;stroke-opacity:1"
           d="m 186.44068,580.50847 h 78.81356"
           id="path836"
           inkscape:connector-curvature="0" />
        <path
           style="fill:none;stroke:#45b2ef;stroke-width:1px;stroke-linecap:round;stroke-linejoin:round;stroke-opacity:1"
           d="M 300,580.9322 H 404.23729"
           id="path838"
           inkscape:connector-curvature="0" />
      </g>
      <g
         transform="translate(-5.0847458,6.779661)"
         id="g858">
        <path
           style="fill:#45b2ef;fill-opacity:1;stroke:none;stroke-width:1px;stroke-linecap:butt;stroke-linejoin:miter;stroke-opacity:1"
           d="m 199.15254,562.71186 v -61.44067 l 299.57628,-46.82204 0.42372,108.68644 z"
           id="path852"
           inkscape:connector-curvature="0"
           sodipodi:nodetypes="ccccc" />
        <path
           sodipodi:nodetypes="ccccc"
           inkscape:connector-curvature="0"
           id="path854"
           d="m 498.74315,398.90447 -0.0143,55.54468 -299.59056,46.83976 -0.42377,-102.78517 z"
           style="fill:#a4e2f7;fill-opacity:1;stroke:none;stroke-width:0.97251946px;stroke-linecap:butt;stroke-linejoin:miter;stroke-opacity:1" />
      </g>
      <g
         transform="translate(-710.87766,7.9661874)"
         id="g1058">
        <g
           id="g995">
          <g
             id="g976">
            <g
               id="g962"
               transform="translate(39.618644,-0.42372881)">
              <path
                 style="fill:none;fill-opacity:1;stroke:#40327a;stroke-width:1px;stroke-linecap:butt;stroke-linejoin:miter;stroke-opacity:1"
                 d="m 810.1695,464.51271 c 0,0 4.13135,-22.66949 24.78813,-0.52966"
                 id="path952"
                 inkscape:connector-curvature="0" />
              <rect
                 style="opacity:1;fill:#ff809f;fill-opacity:1;stroke:none;stroke-width:0;stroke-linecap:round;stroke-linejoin:round;stroke-miterlimit:4;stroke-dasharray:none;stroke-dashoffset:0;stroke-opacity:1"
                 id="rect950"
                 width="55.720341"
                 height="37.182205"
                 x="792.05511"
                 y="462.92374"
                 ry="0" />
            </g>
            <g
               id="g933">
              <g
                 id="g921">
                <path
                   sodipodi:nodetypes="ccssscc"
                   style="fill:#ffabbf;fill-opacity:1;stroke:none;stroke-width:1px;stroke-linecap:butt;stroke-linejoin:miter;stroke-opacity:1"
                   d="m 961.67903,390.25424 c 0,0 1.4036,1.32415 3.57521,0.768 2.17161,-0.55614 4.50212,-2.72775 5.87924,-2.54237 1.37712,0.18538 3.2839,0.13242 4.58157,2.67479 1.29767,2.54237 0.94915,5.89655 -1.13878,6.25 -4.32827,0.7327 -14.00135,-0.99564 -13.82415,-0.4767 z"
                   id="path913"
                   inkscape:connector-curvature="0" />
                <g
                   id="g911">
                  <g
                     id="g903">
                    <path
                       style="fill:#ffabbf;fill-opacity:1;stroke:none;stroke-width:1px;stroke-linecap:butt;stroke-linejoin:miter;stroke-opacity:1"
                       d="m 883.88348,338.13343 v 17.15333 l 14.08221,-1.04867 -0.14981,-9.58789 c 0,0 -0.52434,-0.97377 0.82396,-0.89887 1.3483,0.0749 5.16847,0.22472 5.16847,0.22472 0,0 5.16847,1.04867 5.09357,-3.96999 -0.0749,-5.01866 -1.19849,-17.60276 -2.02245,-18.87615 -0.82396,-1.27339 -22.99595,17.00352 -22.99595,17.00352 z"
                       id="path899"
                       inkscape:connector-curvature="0" />
                    <path
                       style="fill:#403279;fill-opacity:1;stroke:#000000;stroke-width:0;stroke-linecap:butt;stroke-linejoin:miter;stroke-miterlimit:4;stroke-dasharray:none;stroke-opacity:1"
                       d="m 883.88348,338.13343 9.21336,0.14981 c 0,0 2.39697,0.14981 3.22093,-3.29584 0.82396,-3.44564 -0.52434,-8.31449 3.59546,-7.93997 4.1198,0.37453 4.86885,-2.92131 4.86885,-2.92131 0,0 0.82396,-2.62168 3.37074,-2.02244 2.54678,0.59924 8.3894,-2.02245 5.09357,-7.86507 -3.29584,-5.84262 -6.66658,-7.34072 -6.66658,-7.34072 0,0 -7.11601,-1.19849 -11.53543,0.14981 0,0 -5.01866,-5.61791 -8.01488,2.24716 0,0 -7.41563,-2.02245 -8.83883,6.89129 -1.4232,8.91374 -0.89886,16.7039 -0.89886,16.7039 0,0 0.82396,5.09357 6.59167,5.24338 z"
                       id="path897"
                       inkscape:connector-curvature="0" />
                  </g>
                  <path
                     sodipodi:nodetypes="ccccccccccscccccc"
                     inkscape:connector-curvature="0"
                     id="path905"
                     d="m 868.60278,420.97878 h 43.44512 l 1.79773,-37.75231 19.62521,14.08221 27.41537,0.29962 1.04867,-8.23959 -20.07464,-6.44186 -30.26177,-28.76367 c 0,0 -1.04868,-1.3483 -3.44565,-1.19849 -4.66851,-1.15633 -29.9084,1.97084 -30.7112,-0.29962 0,0 -10.48676,-1.49811 -14.23203,7.19092 -5.81649,13.49426 -17.37804,38.20174 -17.37804,38.20174 l 9.28826,46.74096 8.08978,-2.24716 -0.59924,-40.14928 4.34451,-6.29206 z"
                     style="fill:#ffc359;fill-opacity:1;stroke:none;stroke-width:1px;stroke-linecap:round;stroke-linejoin:round;stroke-opacity:1" />
                </g>
              </g>
              <path
                 sodipodi:nodetypes="ccccc"
                 inkscape:connector-curvature="0"
                 id="path923"
                 d="m 855.11981,444.79869 -0.37452,5.31828 c -0.60046,9.02613 9.76882,13.24182 9.43807,1.79773 -2.5312,-8.19731 -0.99696,-9.36528 -0.97377,-9.36317 z"
                 style="fill:#ffabbf;fill-opacity:1;stroke:none;stroke-width:1px;stroke-linecap:butt;stroke-linejoin:miter;stroke-opacity:1" />
            </g>
          </g>
          <g
             id="g948">
            <path
               style="fill:#ea669b;fill-opacity:1;stroke:none;stroke-width:1px;stroke-linecap:butt;stroke-linejoin:miter;stroke-opacity:1"
               d="m 895.70975,555.74682 v 5.1642 c 0,0 -0.22562,0.86747 1.71452,0.98988 1.94014,0.1224 12.58633,-0.0365 12.58633,-0.0365 0,0 2.83368,-0.68856 0.63559,-2.38348 -2.19809,-1.69491 -5.26487,-3.44775 -5.26487,-3.44775 z"
               id="path937"
               inkscape:connector-curvature="0" />
            <path
               inkscape:connector-curvature="0"
               id="path943"
               d="m 858.68643,555.29661 v 5.1642 c 0,0 -0.22562,0.86747 1.71452,0.98988 1.94014,0.1224 12.58633,-0.0365 12.58633,-0.0365 0,0 2.83368,-0.68856 0.63559,-2.38348 -2.19809,-1.69491 -5.26487,-3.44775 -5.26487,-3.44775 z"
               style="fill:#ea669b;fill-opacity:1;stroke:none;stroke-width:1px;stroke-linecap:butt;stroke-linejoin:miter;stroke-opacity:1" />
            <path
               style="fill:#40327a;fill-opacity:1;stroke:none;stroke-width:1px;stroke-linecap:butt;stroke-linejoin:miter;stroke-opacity:1"
               d="m 868.60278,420.97878 h 42.39645 l -5.61791,135.0544 -10.48675,-0.22472 0.0749,-118.57521 -11.0111,0.22471 -15.52617,118.26238 -9.74577,-0.42373 c 5.21223,-89.05227 11.26479,-85.40843 9.91635,-134.31783 z"
               id="path935"
               inkscape:connector-curvature="0"
               sodipodi:nodetypes="ccccccccc" />
          </g>
        </g>
        <g
           id="g1030">
          <path
             inkscape:connector-curvature="0"
             id="path997"
             d="m 974.6688,397.90792 v -20.37426 h 65.3175 v 20.52407 z"
             style="fill:#45b2ef;fill-opacity:1;stroke:none;stroke-width:1px;stroke-linecap:butt;stroke-linejoin:miter;stroke-opacity:1" />
          <g
             transform="translate(0.63559322,0.42372881)"
             id="g1021">
            <path
               id="path1001"
               style="fill:#40327a;fill-opacity:1;stroke:none;stroke-width:1.00992429px;stroke-linecap:butt;stroke-linejoin:miter;stroke-opacity:1"
               d="m 1050.7446,336.06802 c 0,0 5.8065,8.98865 0,18.1271 -5.8063,9.13846 -5.6535,9.43808 0,25.16821 5.6536,15.73013 -4.5839,17.82748 -4.5839,17.82748 h 50.2708 m -17.4191,0 h 17.4191 c 0,0 -2.9031,-27.56518 1.528,-31.01083 4.4312,-3.44564 -0.6112,-8.83883 -0.6112,-8.83883 0,0 -10.2375,-6.8913 -3.6671,-15.2807 6.5703,-8.3894 -0.9169,-19.92483 -0.9169,-19.92483 0,0 -7.4871,-11.38562 -17.8775,-11.086 -10.3902,0.29963 -25.8229,3.89508 -24.1422,25.0184"
               inkscape:connector-curvature="0" />
            <g
               id="g1012">
              <path
                 sodipodi:nodetypes="cccccccscc"
                 inkscape:connector-curvature="0"
                 id="path1006"
                 d="m 1057.4387,326.98485 c 0,0 0.054,12.4134 -1.1822,17.19606 -1.2361,4.78266 5.4274,9.94147 8.1143,9.56531 2.687,-0.37616 3.4929,0.16121 3.4929,0.16121 -0.2436,2.43611 -0.3282,4.87222 -0.7523,7.30833 -0.3871,7.3784 13.6612,10.87388 13.8674,0.32397 l 0.051,-19.56207 c 3.3823,0.89364 7.5304,-7.79769 -1.2896,-7.25458 l -3.9218,0.24148 c -5.9582,-2.73855 -13.04,-10.45525 -18.3794,-7.97971 z"
                 style="fill:#ffadc1;fill-opacity:1;stroke:none;stroke-width:0.10145675;stroke-linecap:butt;stroke-linejoin:miter;stroke-miterlimit:4;stroke-dasharray:none;stroke-opacity:1" />
              <path
                 sodipodi:nodetypes="ccc"
                 inkscape:connector-curvature="0"
                 id="path1008"
                 d="m 1061.4278,345.21855 c 3.4686,4.41281 6.0624,3.77305 8.0937,-0.11399 -2.6979,0.46372 -5.3957,0.23001 -8.0937,0.11399 z"
                 style="fill:#ffffff;stroke:none;stroke-width:0.98714179px;stroke-linecap:butt;stroke-linejoin:miter;stroke-opacity:1" />
            </g>
            <path
               style="fill:#ffe4e0;fill-opacity:1;stroke:none;stroke-width:1px;stroke-linecap:butt;stroke-linejoin:miter;stroke-opacity:1"
               d="m 1043.5817,391.76568 c 0,0 -3.3707,2.92131 -0.4494,5.16847 3.2178,0.50542 6.3145,0.28435 9.4381,0.22472 4.8688,-5.69281 5.7677,-5.76772 5.543,-2.02245 -0.2247,3.74527 0.6741,2.47188 0.6741,2.47188 l 30.936,0.22472 c 0,0 1.4232,0 1.7228,-2.92131 0.2996,-2.92131 0.749,-8.3145 2.0973,-3.96999 1.3483,4.34451 2.0225,6.9662 2.0225,6.9662 l 13.3331,-0.82396 -8.9137,-30.6363 c 0,0 -1.2734,-5.09356 -6.367,-5.16847 -2.1338,-0.0314 -7.1155,-1.69976 -12.4531,-1.16078 -1.3444,0.13574 0.3832,8.08124 -6.9466,7.85213 -6.5893,-0.20597 -7.1042,-6.76343 -7.1074,-6.75475 0,0 -8.7733,-1.7343 -9.7471,4.25813 z"
               id="path1014"
               inkscape:connector-curvature="0"
               sodipodi:nodetypes="cccsccssccccssccc" />
          </g>
        </g>
      </g>
      <g
         transform="translate(-5.0847458,6.779661)"
         id="g887">
        <path
           style="fill:none;stroke:#ffffff;stroke-width:1px;stroke-linecap:round;stroke-linejoin:round;stroke-opacity:1"
           d="M 310.59322,495.76271 468.22034,472.0339"
           id="path840"
           inkscape:connector-curvature="0" />
        <path
           style="fill:none;stroke:#ffffff;stroke-width:1px;stroke-linecap:round;stroke-linejoin:round;stroke-opacity:1"
           d="M 393.64407,497.0339 455.9322,486.86441"
           id="path842"
           inkscape:connector-curvature="0" />
      </g>
      <g
         transform="translate(-765.5,10.25)"
         id="g1234">
        <g
           id="g1213"
           transform="translate(27.864801,-1.3482968)">
          <path
             sodipodi:nodetypes="cccccc"
             inkscape:connector-curvature="0"
             d="m 1157.7376,358.5826 9.7002,9.70024 m 8.1272,-14.56909 -8.0897,7.93997 m 0.1498,-16.47918 v 28.46404"
             style="fill:#7c75a7;fill-opacity:1;stroke:#40327a;stroke-width:1px;stroke-linecap:butt;stroke-linejoin:miter;stroke-opacity:1"
             id="path1207" />
          <path
             inkscape:connector-curvature="0"
             d="m 1149.4835,355.86924 c 1.6249,1.9513 7.6864,3.76339 8.3607,3.20194 0.9226,-0.6961 0.3304,-7.13457 -1.2943,-9.0859 -1.6249,-1.95133 -4.5239,-2.21603 -6.4752,-0.59117 -1.9513,1.62481 -2.216,4.52382 -0.5912,6.47513 z m 37.1696,-5.28416 c -2.1972,2.63862 -10.3939,5.089 -11.3057,4.32979 -1.2475,-0.94129 -0.4468,-9.64765 1.7503,-12.28632 2.1972,-2.63867 6.1173,-2.9966 8.756,-0.7994 2.6386,2.19713 2.9965,6.11729 0.7994,8.75593 z m -12.9607,-15.29806 c 0,3.43361 -4.731,10.56163 -5.9175,10.56165 -1.561,0.0749 -6.5168,-7.128 -6.5168,-10.56165 0,-3.43366 2.7835,-6.21718 6.2172,-6.21715 3.4336,3e-5 6.2171,2.78353 6.2171,6.21715 z"
             style="opacity:1;fill:#46b2ef;fill-opacity:1;stroke:none;stroke-width:0.09742798;stroke-linecap:round;stroke-linejoin:round;stroke-miterlimit:4;stroke-dasharray:none;stroke-dashoffset:0;stroke-opacity:1"
             id="path1201" />
        </g>
        <g
           id="g1226"
           transform="translate(-0.0883888)"
           style="fill:#ff809f;fill-opacity:1">
          <rect
             style="opacity:1;fill:#ff809f;fill-opacity:1;stroke:none;stroke-width:0.04623682;stroke-linecap:round;stroke-linejoin:round;stroke-miterlimit:4;stroke-dasharray:none;stroke-dashoffset:0;stroke-opacity:1"
             id="rect1217"
             width="27.693848"
             height="4.9226122"
             x="1181.8302"
             y="371.96378"
             ry="0" />
          <path
             sodipodi:nodetypes="ccccccsscc"
             inkscape:connector-curvature="0"
             d="m 1181.8302,378.33072 h 27.6938 v 4.92261 h -27.6938 z m 27.6938,4.92261 c 0,6.39063 -5.1717,11.80819 -11.5623,11.80819 h -4.5692 c -6.3906,0 -11.5666,-5.41433 -11.5666,-11.80496 0.01,-0.0917 27.7041,-0.38184 27.6981,-0.003 z"
             style="opacity:1;fill:#ff809f;fill-opacity:1;stroke:none;stroke-width:0.04623682;stroke-linecap:round;stroke-linejoin:round;stroke-miterlimit:4;stroke-dasharray:none;stroke-dashoffset:0;stroke-opacity:1"
             id="rect1219" />
        </g>
      </g>
      <g
         id="g1067">
        <rect
           style="opacity:1;fill:#eefbff;fill-opacity:1;stroke:none;stroke-width:7.98838377;stroke-linecap:round;stroke-linejoin:round;stroke-miterlimit:4;stroke-dasharray:none;stroke-dashoffset:0;stroke-opacity:1"
           id="rect1049"
           width="38.605862"
           height="3.1779661"
           x="474.97809"
           y="548.62286"
           ry="0" />
        <g
           id="g1047"
           transform="translate(-114.29742,43.094221)">
          <g
             id="g1329">
            <path
               style="fill:#37a1f6;fill-opacity:1;stroke:none;stroke-width:1px;stroke-linecap:butt;stroke-linejoin:miter;stroke-opacity:1"
               d="m 574.07973,468.4302 c 0,0 17.8563,24.68546 52.8581,10.18977 0,0 19.0918,-9.54594 15.026,-24.92551 0,0 0,-4.24264 -4.9498,-10.78338 -4.9497,-6.54074 -9.5459,-18.9151 -2.4748,-28.8146 7.071,-9.89949 19.9757,-27.93072 12.5511,-36.23922 -7.4246,-8.30851 -19.9758,-16.79379 -19.9758,-16.79379 0,0 -9.1923,-5.48008 -8.662,-21.92031 0.5303,-16.44023 -3.7123,-27.93072 -3.7123,-27.93072 0,0 -9.546,-16.61701 -21.9203,-3.35875 -12.3744,13.25825 -24.7488,65.58415 -24.7488,65.58415 0,0 -3.0052,14.49569 4.9498,27.22361 7.9549,12.72792 17.1473,19.62221 17.1473,19.62221 0,0 7.6014,9.01562 -4.5962,15.2028 -12.1976,6.18718 -11.3137,3.35876 -17.1473,9.72272 -7.955,9.72272 5.655,23.22102 5.655,23.22102 z"
               id="path1236"
               inkscape:connector-curvature="0"
               sodipodi:nodetypes="cccccscscccccscc" />
            <path
               style="fill:none;fill-opacity:1;stroke:#41327a;stroke-width:1px;stroke-linecap:butt;stroke-linejoin:miter;stroke-opacity:1"
               d="m 573.86293,468.20765 c 0.1395,0.1459 0.2168,0.22255 0.2168,0.22255 v 0 c 0,0 17.8563,24.68546 52.8581,10.18977 0,0 19.0918,-9.54594 15.026,-24.92551 0,0 0,-0.002 -10e-5,-0.007"
               id="path1259"
               inkscape:connector-curvature="0" />
            <path
               style="fill:none;fill-opacity:1;stroke:#41327a;stroke-width:1px;stroke-linecap:butt;stroke-linejoin:miter;stroke-opacity:1"
               d="m 576.82493,342.43099 c -5.2014,15.9854 -8.7538,31.00685 -8.7538,31.00685 0,0 -3.0052,14.49569 4.9498,27.22361 7.9549,12.72792 17.1473,19.62221 17.1473,19.62221 0,0 7.6014,9.01562 -4.5962,15.2028 -12.1976,6.18718 -11.3137,3.35876 -17.1473,9.72272 -1.3876,1.69591 -2.119,3.50669 -2.381,5.34067"
               id="path1255"
               inkscape:connector-curvature="0" />
            <path
               style="fill:none;fill-opacity:1;stroke:#41327a;stroke-width:1px;stroke-linecap:butt;stroke-linejoin:miter;stroke-opacity:1"
               d="m 631.43513,364.15508 c -2.5747,-1.91128 -4.3206,-3.09161 -4.3206,-3.09161 0,0 -9.1923,-5.48008 -8.662,-21.92031 0.5303,-16.44023 -3.7123,-27.93072 -3.7123,-27.93072 0,0 -9.546,-16.61701 -21.9203,-3.35875 -4.8132,5.15702 -9.6265,16.22478 -13.7115,27.82489"
               id="path1251"
               inkscape:connector-curvature="0" />
            <path
               style="fill:none;fill-opacity:1;stroke:#41327a;stroke-width:1px;stroke-linecap:butt;stroke-linejoin:miter;stroke-opacity:1"
               d="m 634.25373,414.5068 c 0.093,-0.13723 0.1881,-0.27401 0.2855,-0.41032 7.071,-9.89949 19.9757,-27.93072 12.5511,-36.23922 -2.1025,-2.35282 -4.6161,-4.71982 -7.1394,-6.90429"
               id="path1247"
               inkscape:connector-curvature="0" />
            <path
               style="fill:none;fill-opacity:1;stroke:#41327a;stroke-width:1px;stroke-linecap:butt;stroke-linejoin:miter;stroke-opacity:1"
               d="m 637.94913,444.20205 c -0.2902,-0.41948 -0.6014,-0.85 -0.9351,-1.29097 -1.0526,-1.39095 -2.0892,-3.04571 -3.001,-4.88439"
               id="path1243"
               inkscape:connector-curvature="0" />
            <g
               id="g883"
               transform="translate(96.39184,-33.63278)">
              <path
                 sodipodi:nodetypes="cc"
                 inkscape:connector-curvature="0"
                 id="path846"
                 d="m 500.84746,484.32203 c 0,0 10.86441,4.66102 10.44068,13.98305"
                 style="fill:none;stroke:#000080;stroke-width:1px;stroke-linecap:round;stroke-linejoin:round;stroke-opacity:1" />
              <path
                 inkscape:connector-curvature="0"
                 id="path844"
                 d="m 511.44068,410.16949 v 125"
                 style="fill:none;stroke:#000080;stroke-width:1px;stroke-linecap:round;stroke-linejoin:miter;stroke-opacity:1" />
              <path
                 inkscape:connector-curvature="0"
                 id="path848"
                 d="m 527.33051,427.9661 c 0,0 -15.4661,8.68644 -15.67797,16.94915"
                 style="fill:none;stroke:#000080;stroke-width:1px;stroke-linecap:round;stroke-linejoin:miter;stroke-opacity:1" />
            </g>
          </g>
          <g
             id="g1341"
             transform="matrix(1.3956999,0,0,1.091841,-1060.2201,94.533688)"
             style="fill:#ffc359;fill-opacity:1">
            <rect
               style="opacity:1;fill:#ffc359;fill-opacity:1;stroke:none;stroke-width:0.04623682;stroke-linecap:round;stroke-linejoin:round;stroke-miterlimit:4;stroke-dasharray:none;stroke-dashoffset:0;stroke-opacity:1"
               id="rect1337"
               width="27.693848"
               height="4.9226122"
               x="1181.8302"
               y="371.96378"
               ry="0" />
            <path
               sodipodi:nodetypes="ccccccsscc"
               inkscape:connector-curvature="0"
               d="m 1181.8302,378.33072 h 27.6938 v 4.92261 h -27.6938 z m 27.6938,4.92261 c 0,6.39063 -5.1717,11.80819 -11.5623,11.80819 h -4.5692 c -6.3906,0 -11.5666,-5.41433 -11.5666,-11.80496 0.01,-0.0917 27.7041,-0.38184 27.6981,-0.003 z"
               style="opacity:1;fill:#ffc359;fill-opacity:1;stroke:none;stroke-width:0.04623682;stroke-linecap:round;stroke-linejoin:round;stroke-miterlimit:4;stroke-dasharray:none;stroke-dashoffset:0;stroke-opacity:1"
               id="path1339" />
          </g>
        </g>
      </g>
      <g
         transform="translate(-1083.4314,38.351554)"
         id="g970">
        <path
           id="path904"
           style="fill:none;stroke:#37a1f6;stroke-width:1px;stroke-linecap:round;stroke-linejoin:round;stroke-opacity:1"
           d="m 1488.5183,256.01448 -1.7444,1.04391 m 18.999,-11.36972 -1.7444,1.04391 m -3.1141,12.39605 1.0439,1.7444 m -11.3698,-18.999 1.0439,1.7444 m -0.095,15.45232 -1.0654,1.73138 m 11.6034,-18.8572 -1.0654,1.73138 m 2.9609,12.43354 1.7314,1.06537 m -18.8572,-11.60338 1.7314,1.06537 m 7.6972,13.77402 v 2.0329 m 0,-22.1412 v 2.0329 m 9.0377,9.0377 h 2.0329 m -22.1412,0 h 2.0329"
           inkscape:connector-curvature="0" />
        <path
           id="path904-4"
           style="fill:none;stroke:#37a1f6;stroke-width:1px;stroke-linecap:round;stroke-linejoin:round;stroke-opacity:1"
           d="m 1318.3694,299.47907 -1.7444,1.04391 m 18.999,-11.36972 -1.7444,1.04391 m -3.1141,12.39605 1.0439,1.7444 m -11.3698,-18.999 1.0439,1.7444 m -0.095,15.45232 -1.0654,1.73138 m 11.6034,-18.8572 -1.0654,1.73138 m 2.9609,12.43354 1.7314,1.06537 m -18.8572,-11.60338 1.7314,1.06537 m 7.6972,13.77402 v 2.0329 m 0,-22.1412 v 2.0329 m 9.0377,9.0377 h 2.0329 m -22.1412,0 h 2.0329"
           inkscape:connector-curvature="0" />
        <path
           id="path904-5"
           style="fill:none;stroke:#37a1f6;stroke-width:1px;stroke-linecap:round;stroke-linejoin:round;stroke-opacity:1"
           d="m 1623.9834,439.1027 -1.7444,1.04391 m 18.999,-11.36972 -1.7444,1.04391 m -3.1141,12.39605 1.0439,1.7444 m -11.3698,-18.999 1.0439,1.7444 m -0.095,15.45232 -1.0654,1.73138 m 11.6034,-18.8572 -1.0654,1.73138 m 2.9609,12.43354 1.7314,1.06537 m -18.8572,-11.60338 1.7314,1.06537 m 7.6972,13.77402 v 2.0329 m 0,-22.1412 v 2.0329 m 9.0377,9.0377 h 2.0329 m -22.1412,0 h 2.0329"
           inkscape:connector-curvature="0" />
      </g>
    </g>
  </g>
</svg>
