<?xml version="1.0" encoding="UTF-8" standalone="no"?>
<!-- Created with Inkscape (http://www.inkscape.org/) -->

<svg
   xmlns:dc="http://purl.org/dc/elements/1.1/"
   xmlns:cc="http://creativecommons.org/ns#"
   xmlns:rdf="http://www.w3.org/1999/02/22-rdf-syntax-ns#"
   xmlns:svg="http://www.w3.org/2000/svg"
   xmlns="http://www.w3.org/2000/svg"
   xmlns:sodipodi="http://sodipodi.sourceforge.net/DTD/sodipodi-0.dtd"
   xmlns:inkscape="http://www.inkscape.org/namespaces/inkscape"
   width="780"
   height="146.23256"
   viewBox="0 0 206.37501 38.690696"
   version="1.1"
   id="svg8"
   inkscape:version="0.92.4 (5da689c313, 2019-01-14)"
   sodipodi:docname="SYSTUNIX_logo_dark1.svg">
  <defs
     id="defs2" />
  <sodipodi:namedview
     id="base"
     pagecolor="#ffffff"
     bordercolor="#666666"
     borderopacity="1.0"
     inkscape:pageopacity="0.0"
     inkscape:pageshadow="2"
     inkscape:zoom="1.4"
     inkscape:cx="470.95139"
     inkscape:cy="-63.568233"
     inkscape:document-units="px"
     inkscape:current-layer="layer1"
     showgrid="false"
     inkscape:pagecheckerboard="true"
     inkscape:window-width="1920"
     inkscape:window-height="1017"
     inkscape:window-x="1912"
     inkscape:window-y="-8"
     inkscape:window-maximized="1"
     units="px"
     inkscape:snap-global="false" />
  <metadata
     id="metadata5">
    <rdf:RDF>
      <cc:Work
         rdf:about="">
        <dc:format>image/svg+xml</dc:format>
        <dc:type
           rdf:resource="http://purl.org/dc/dcmitype/StillImage" />
        <dc:title></dc:title>
      </cc:Work>
    </rdf:RDF>
  </metadata>
  <g
     inkscape:label="Layer 1"
     inkscape:groupmode="layer"
     id="layer1"
     transform="translate(451.61595,-137.04752)">
    <g
       id="g894">
      <g
         transform="translate(5.936766,-0.47674469)"
         id="g888">
        <g
           id="g866"
           transform="translate(0,0.61421132)"
           style="fill:#032757;fill-opacity:1;stroke:#032757;stroke-opacity:1">
          <path
             id="circle1312"
             d="m -428.14584,164.95905 a 1.580904,1.580904 0 0 1 -1.58091,1.5809 1.580904,1.580904 0 0 1 -1.5809,-1.5809 1.580904,1.580904 0 0 1 1.5809,-1.58091 1.580904,1.580904 0 0 1 1.58091,1.58091 z"
             style="fill:#032757;fill-opacity:1;stroke:#032757;stroke-width:1.053936;stroke-opacity:1" />
          <path
             id="circle1314"
             d="m -438.87546,164.81963 a 1.580904,1.580904 0 0 1 -1.5809,1.5809 1.580904,1.580904 0 0 1 -1.5809,-1.5809 1.580904,1.580904 0 0 1 1.5809,-1.58091 1.580904,1.580904 0 0 1 1.5809,1.58091 z"
             style="fill:#032757;fill-opacity:1;stroke:#032757;stroke-width:1.053936;stroke-opacity:1" />
        </g>
        <path
           inkscape:connector-curvature="0"
           id="path1316"
           d="m -447.0293,146.19727 a 0.83664534,0.83664534 0 0 0 -0.78125,1.13476 l 2.31641,6.11133 a 0.83664534,0.83664534 0 0 0 0.7793,0.54102 l 16.69336,0.0449 -1.29688,3.4707 h -13.125 a 0.836915,0.836915 0 1 0 0,1.67383 h 13.70508 a 0.83664534,0.83664534 0 0 0 0.78516,-0.54492 l 1.91992,-5.14063 a 0.83664534,0.83664534 0 0 0 -0.78321,-1.1289 l -17.3164,-0.0469 -1.6836,-4.44141 h 21.41407 a 0.83691,0.83691 0 1 0 0,-1.67382 z"
           style="color:#000000;font-style:normal;font-variant:normal;font-weight:normal;font-stretch:normal;font-size:medium;line-height:normal;font-family:sans-serif;font-variant-ligatures:normal;font-variant-position:normal;font-variant-caps:normal;font-variant-numeric:normal;font-variant-alternates:normal;font-feature-settings:normal;text-indent:0;text-align:start;text-decoration:none;text-decoration-line:none;text-decoration-style:solid;text-decoration-color:#000000;letter-spacing:normal;word-spacing:normal;text-transform:none;writing-mode:lr-tb;direction:ltr;text-orientation:mixed;dominant-baseline:auto;baseline-shift:baseline;text-anchor:start;white-space:normal;shape-padding:0;clip-rule:nonzero;display:inline;overflow:visible;visibility:visible;opacity:1;isolation:auto;mix-blend-mode:normal;color-interpolation:sRGB;color-interpolation-filters:linearRGB;solid-color:#000000;solid-opacity:1;vector-effect:none;fill:#032757;fill-opacity:1;fill-rule:nonzero;stroke:none;stroke-width:1.67312336;stroke-linecap:round;stroke-linejoin:round;stroke-miterlimit:4;stroke-dasharray:none;stroke-dashoffset:0;stroke-opacity:1;color-rendering:auto;image-rendering:auto;shape-rendering:auto;text-rendering:auto;enable-background:accumulate" />
        <path
           inkscape:connector-curvature="0"
           id="path1324"
           d="m -450.81641,145.71875 a 0.83664534,0.83664534 0 0 0 -0.7539,1.17383 l 6.70117,15.85937 a 0.83664534,0.83664534 0 0 0 0.76172,0.50977 l 17.62695,0.16211 a 0.83664534,0.83664534 0 0 0 0.79492,-0.55274 l 5.27344,-14.65429 h 3.89649 a 0.836915,0.836915 0 1 0 0,-1.67383 H -421 a 0.83664534,0.83664534 0 0 0 -0.78906,0.55273 l -5.26953,14.65039 -16.48438,-0.15234 -6.48633,-15.35352 a 0.83664534,0.83664534 0 0 0 -0.78711,-0.52148 z"
           style="color:#000000;font-style:normal;font-variant:normal;font-weight:normal;font-stretch:normal;font-size:medium;line-height:normal;font-family:sans-serif;font-variant-ligatures:normal;font-variant-position:normal;font-variant-caps:normal;font-variant-numeric:normal;font-variant-alternates:normal;font-feature-settings:normal;text-indent:0;text-align:start;text-decoration:none;text-decoration-line:none;text-decoration-style:solid;text-decoration-color:#000000;letter-spacing:normal;word-spacing:normal;text-transform:none;writing-mode:lr-tb;direction:ltr;text-orientation:mixed;dominant-baseline:auto;baseline-shift:baseline;text-anchor:start;white-space:normal;shape-padding:0;clip-rule:nonzero;display:inline;overflow:visible;visibility:visible;opacity:1;isolation:auto;mix-blend-mode:normal;color-interpolation:sRGB;color-interpolation-filters:linearRGB;solid-color:#000000;solid-opacity:1;vector-effect:none;fill:#032757;fill-opacity:1;fill-rule:nonzero;stroke:none;stroke-width:1.67312336;stroke-linecap:round;stroke-linejoin:round;stroke-miterlimit:4;stroke-dasharray:none;stroke-dashoffset:0;stroke-opacity:1;color-rendering:auto;image-rendering:auto;shape-rendering:auto;text-rendering:auto;enable-background:accumulate" />
      </g>
      <g
         id="text819"
         style="font-style:normal;font-weight:normal;font-size:33.56338501px;line-height:1.25;font-family:sans-serif;letter-spacing:0px;word-spacing:0px;fill:#031f4b;fill-opacity:1;stroke:none;stroke-width:0.83908457"
         aria-label="SYSTUNIX">
        <path
           id="path856"
           style="font-style:normal;font-variant:normal;font-weight:bold;font-stretch:normal;font-family:Calibri;-inkscape-font-specification:'Calibri Bold';letter-spacing:3.04230571px;fill:#031f4b;fill-opacity:1;stroke-width:0.83908457"
           d="m -392.73951,160.80804 q 0,1.67162 -0.62275,2.93352 -0.62276,1.26191 -1.68801,2.1141 -1.06524,0.83581 -2.49103,1.26191 -1.42579,0.4261 -3.04824,0.4261 -1.09802,0 -2.04854,-0.18028 -0.93414,-0.18027 -1.65523,-0.42609 -0.72109,-0.26222 -1.21274,-0.54082 -0.47526,-0.2786 -0.68831,-0.49165 -0.21305,-0.21305 -0.31138,-0.60637 -0.0819,-0.40971 -0.0819,-1.16358 0,-0.50804 0.0328,-0.85219 0.0328,-0.34416 0.0983,-0.55721 0.0819,-0.21304 0.19666,-0.29499 0.1311,-0.0983 0.29499,-0.0983 0.22944,0 0.63914,0.27861 0.4261,0.26221 1.08164,0.58998 0.65553,0.32776 1.55689,0.60637 0.91775,0.26221 2.1141,0.26221 0.78664,0 1.4094,-0.18027 0.62276,-0.19666 1.04886,-0.54082 0.44248,-0.34415 0.67192,-0.85219 0.22944,-0.50804 0.22944,-1.1308 0,-0.72109 -0.39332,-1.22913 -0.39332,-0.52443 -1.03247,-0.91775 -0.62276,-0.40971 -1.42579,-0.75386 -0.80303,-0.36055 -1.65522,-0.75387 -0.8522,-0.39332 -1.65523,-0.88497 -0.80303,-0.50804 -1.44218,-1.19635 -0.62275,-0.7047 -1.01608,-1.65523 -0.39332,-0.95052 -0.39332,-2.27798 0,-1.52412 0.55721,-2.6713 0.57359,-1.16358 1.52412,-1.91744 0.96691,-0.77026 2.26159,-1.14719 1.31107,-0.37693 2.76964,-0.37693 0.75386,0 1.50773,0.11472 0.75386,0.11471 1.4094,0.31138 0.65553,0.19666 1.16357,0.44248 0.50804,0.24583 0.67192,0.40971 0.16389,0.16388 0.21305,0.2786 0.0656,0.11472 0.0983,0.31138 0.0492,0.18027 0.0656,0.47526 0.0164,0.27861 0.0164,0.7047 0,0.47527 -0.0328,0.80303 -0.0164,0.32777 -0.0819,0.54082 -0.0492,0.21305 -0.16389,0.31138 -0.0983,0.0983 -0.2786,0.0983 -0.18027,0 -0.57359,-0.22944 -0.39332,-0.22943 -0.96692,-0.49165 -0.57359,-0.2786 -1.32745,-0.49165 -0.75387,-0.22944 -1.65523,-0.22944 -0.7047,0 -1.22913,0.18028 -0.52443,0.16388 -0.88497,0.47526 -0.34416,0.29499 -0.52443,0.72109 -0.16388,0.42609 -0.16388,0.90136 0,0.7047 0.37693,1.22913 0.39332,0.50803 1.03247,0.91774 0.65553,0.39332 1.47495,0.75387 0.81942,0.34415 1.67162,0.73748 0.85219,0.39332 1.67161,0.90136 0.81942,0.49165 1.45857,1.19635 0.63914,0.68831 1.03246,1.63883 0.39332,0.93414 0.39332,2.21243 z" />
        <path
           id="path858"
           style="font-style:normal;font-variant:normal;font-weight:bold;font-stretch:normal;font-family:Calibri;-inkscape-font-specification:'Calibri Bold';letter-spacing:3.04230571px;fill:#031f4b;fill-opacity:1;stroke-width:0.83908457"
           d="m -378.48756,159.12004 v 7.45671 q 0,0.16389 -0.11471,0.29499 -0.0983,0.13111 -0.34416,0.21305 -0.24583,0.0819 -0.67192,0.13111 -0.40971,0.0492 -1.03247,0.0492 -0.63915,0 -1.04886,-0.0492 -0.40971,-0.0492 -0.67192,-0.13111 -0.24583,-0.0819 -0.34416,-0.21305 -0.0983,-0.1311 -0.0983,-0.29499 v -7.45671 l -5.80148,-11.5538 q -0.31138,-0.60637 -0.40971,-0.93414 -0.0819,-0.34415 0.0983,-0.50804 0.19666,-0.18027 0.7047,-0.21305 0.50804,-0.0492 1.4094,-0.0492 0.75387,0 1.19635,0.0328 0.45888,0.0328 0.72109,0.1311 0.26222,0.0819 0.37693,0.22944 0.13111,0.1475 0.24583,0.37693 l 2.35992,5.21151 q 0.34416,0.75386 0.67193,1.58967 0.34415,0.8358 0.68831,1.75355 h 0.0328 q 0.31138,-0.88497 0.63914,-1.72078 0.32777,-0.8358 0.63915,-1.58967 l 2.32715,-5.17872 q 0.0819,-0.26222 0.19666,-0.40971 0.13111,-0.16389 0.37693,-0.26222 0.24583,-0.0983 0.67192,-0.1311 0.4261,-0.0328 1.1308,-0.0328 0.93414,0 1.44218,0.0492 0.52443,0.0328 0.7047,0.21305 0.19666,0.16389 0.0983,0.50804 -0.0983,0.34416 -0.39332,0.93414 z" />
        <path
           id="path860"
           style="font-style:normal;font-variant:normal;font-weight:bold;font-stretch:normal;font-family:Calibri;-inkscape-font-specification:'Calibri Bold';letter-spacing:3.04230571px;fill:#031f4b;fill-opacity:1;stroke-width:0.83908457"
           d="m -354.46813,160.80804 q 0,1.67162 -0.62276,2.93352 -0.62276,1.26191 -1.688,2.1141 -1.06525,0.83581 -2.49104,1.26191 -1.42578,0.4261 -3.04823,0.4261 -1.09802,0 -2.04855,-0.18028 -0.93414,-0.18027 -1.65522,-0.42609 -0.72109,-0.26222 -1.21274,-0.54082 -0.47527,-0.2786 -0.68832,-0.49165 -0.21304,-0.21305 -0.31137,-0.60637 -0.082,-0.40971 -0.082,-1.16358 0,-0.50804 0.0328,-0.85219 0.0328,-0.34416 0.0983,-0.55721 0.0819,-0.21304 0.19666,-0.29499 0.13111,-0.0983 0.29499,-0.0983 0.22944,0 0.63915,0.27861 0.4261,0.26221 1.08163,0.58998 0.65554,0.32776 1.5569,0.60637 0.91774,0.26221 2.1141,0.26221 0.78664,0 1.4094,-0.18027 0.62275,-0.19666 1.04885,-0.54082 0.44249,-0.34415 0.67192,-0.85219 0.22944,-0.50804 0.22944,-1.1308 0,-0.72109 -0.39332,-1.22913 -0.39332,-0.52443 -1.03247,-0.91775 -0.62275,-0.40971 -1.42578,-0.75386 -0.80303,-0.36055 -1.65523,-0.75387 -0.8522,-0.39332 -1.65523,-0.88497 -0.80303,-0.50804 -1.44217,-1.19635 -0.62276,-0.7047 -1.01608,-1.65523 -0.39332,-0.95052 -0.39332,-2.27798 0,-1.52412 0.5572,-2.6713 0.5736,-1.16358 1.52412,-1.91744 0.96691,-0.77026 2.2616,-1.14719 1.31107,-0.37693 2.76963,-0.37693 0.75387,0 1.50773,0.11472 0.75387,0.11471 1.4094,0.31138 0.65554,0.19666 1.16358,0.44248 0.50803,0.24583 0.67192,0.40971 0.16388,0.16388 0.21305,0.2786 0.0655,0.11472 0.0983,0.31138 0.0492,0.18027 0.0656,0.47526 0.0164,0.27861 0.0164,0.7047 0,0.47527 -0.0328,0.80303 -0.0164,0.32777 -0.0819,0.54082 -0.0492,0.21305 -0.16388,0.31138 -0.0983,0.0983 -0.27861,0.0983 -0.18027,0 -0.57359,-0.22944 -0.39332,-0.22943 -0.96691,-0.49165 -0.57359,-0.2786 -1.32746,-0.49165 -0.75387,-0.22944 -1.65523,-0.22944 -0.7047,0 -1.22912,0.18028 -0.52443,0.16388 -0.88498,0.47526 -0.34415,0.29499 -0.52442,0.72109 -0.16389,0.42609 -0.16389,0.90136 0,0.7047 0.37694,1.22913 0.39332,0.50803 1.03246,0.91774 0.65554,0.39332 1.47496,0.75387 0.81941,0.34415 1.67161,0.73748 0.8522,0.39332 1.67161,0.90136 0.81942,0.49165 1.45857,1.19635 0.63915,0.68831 1.03247,1.63883 0.39332,0.93414 0.39332,2.21243 z" />
        <path
           id="path862"
           style="font-style:normal;font-variant:normal;font-weight:bold;font-stretch:normal;font-family:Calibri;-inkscape-font-specification:'Calibri Bold';letter-spacing:3.04230571px;fill:#031f4b;fill-opacity:1;stroke-width:0.83908457"
           d="m -334.34914,147.73012 q 0,0.47527 -0.0492,0.81942 -0.0328,0.32777 -0.11472,0.54082 -0.0819,0.19666 -0.21304,0.29499 -0.11472,0.0983 -0.26222,0.0983 h -5.30983 v 17.09307 q 0,0.16389 -0.11472,0.29499 -0.0983,0.13111 -0.34416,0.21305 -0.24582,0.0819 -0.67192,0.13111 -0.40971,0.0492 -1.03247,0.0492 -0.62275,0 -1.04885,-0.0492 -0.40971,-0.0492 -0.65554,-0.13111 -0.24582,-0.0819 -0.36054,-0.21305 -0.0983,-0.1311 -0.0983,-0.29499 v -17.09307 h -5.30983 q -0.16389,0 -0.27861,-0.0983 -0.11471,-0.0983 -0.19666,-0.29499 -0.0819,-0.21305 -0.1311,-0.54082 -0.0328,-0.34415 -0.0328,-0.81942 0,-0.49165 0.0328,-0.8358 0.0492,-0.34416 0.1311,-0.54082 0.0819,-0.21305 0.19666,-0.29499 0.11472,-0.0983 0.27861,-0.0983 h 14.94619 q 0.1475,0 0.26222,0.0983 0.1311,0.0819 0.21304,0.29499 0.082,0.19666 0.11472,0.54082 0.0492,0.34415 0.0492,0.8358 z" />
        <path
           id="path864"
           style="font-style:normal;font-variant:normal;font-weight:bold;font-stretch:normal;font-family:Calibri;-inkscape-font-specification:'Calibri Bold';letter-spacing:3.04230571px;fill:#031f4b;fill-opacity:1;stroke-width:0.83908457"
           d="m -311.46052,159.26754 q 0,1.95021 -0.57359,3.49072 -0.5736,1.54051 -1.688,2.60575 -1.11441,1.06525 -2.75325,1.62245 -1.63884,0.55721 -3.76933,0.55721 -1.99938,0 -3.58905,-0.49166 -1.58967,-0.50804 -2.68769,-1.52411 -1.09802,-1.01608 -1.68801,-2.52381 -0.57359,-1.52412 -0.57359,-3.55628 v -12.89765 q 0,-0.16388 0.0983,-0.29499 0.0983,-0.13111 0.34416,-0.21305 0.26221,-0.0819 0.67192,-0.13111 0.40971,-0.0492 1.04886,-0.0492 0.62275,0 1.03246,0.0492 0.40971,0.0492 0.65554,0.13111 0.24582,0.0819 0.34415,0.21305 0.11472,0.13111 0.11472,0.29499 v 12.52072 q 0,1.2619 0.31138,2.19604 0.31138,0.91775 0.88497,1.52412 0.58999,0.60637 1.39302,0.91775 0.81941,0.29499 1.81911,0.29499 1.01607,0 1.8191,-0.31138 0.80303,-0.31138 1.36024,-0.90136 0.5572,-0.60637 0.85219,-1.47496 0.31138,-0.88497 0.31138,-1.99938 v -12.76654 q 0,-0.16388 0.0983,-0.29499 0.0983,-0.13111 0.34416,-0.21305 0.24583,-0.0819 0.65553,-0.13111 0.4261,-0.0492 1.04886,-0.0492 0.62276,0 1.01608,0.0492 0.40971,0.0492 0.65553,0.13111 0.24583,0.0819 0.34416,0.21305 0.0983,0.13111 0.0983,0.29499 z" />
        <path
           id="path866"
           style="font-style:normal;font-variant:normal;font-weight:bold;font-stretch:normal;font-family:Calibri;-inkscape-font-specification:'Calibri Bold';letter-spacing:3.04230571px;fill:#031f4b;fill-opacity:1;stroke-width:0.83908457"
           d="m -286.34308,165.659 q 0,0.37694 -0.1311,0.67193 -0.13111,0.29499 -0.36055,0.49165 -0.21305,0.19666 -0.52442,0.29499 -0.295,0.0819 -0.60637,0.0819 h -1.8355 q -0.57359,0 -0.99969,-0.11472 -0.40971,-0.11472 -0.77026,-0.40971 -0.34415,-0.31138 -0.67192,-0.81942 -0.32777,-0.52442 -0.73748,-1.34384 l -5.27705,-9.91497 q -0.45888,-0.88497 -0.93414,-1.90105 -0.47526,-1.03247 -0.85219,-1.99938 h -0.0328 q 0.0655,1.17996 0.0983,2.35992 0.0328,1.16358 0.0328,2.4091 v 11.09492 q 0,0.16389 -0.0983,0.29499 -0.082,0.13111 -0.31138,0.22944 -0.21305,0.0819 -0.58998,0.13111 -0.37694,0.0492 -0.96692,0.0492 -0.57359,0 -0.95052,-0.0492 -0.37694,-0.0492 -0.58999,-0.13111 -0.21304,-0.0983 -0.29499,-0.22944 -0.0819,-0.1311 -0.0819,-0.29499 v -19.05967 q 0,-0.77026 0.44249,-1.14719 0.45887,-0.39332 1.11441,-0.39332 h 2.31076 q 0.62276,0 1.04885,0.11472 0.4261,0.0983 0.75387,0.34415 0.34415,0.24583 0.63915,0.68832 0.29499,0.42609 0.60636,1.06524 l 4.12987,7.7517 q 0.36055,0.7047 0.7047,1.39301 0.36055,0.67192 0.68832,1.36024 0.32776,0.67192 0.63914,1.32745 0.31138,0.65554 0.60637,1.31107 h 0.0164 q -0.0492,-1.14718 -0.0819,-2.3927 -0.0164,-1.24551 -0.0164,-2.37631 v -9.94774 q 0,-0.16389 0.0983,-0.29499 0.0983,-0.13111 0.32777,-0.22944 0.22944,-0.0983 0.60637,-0.13111 0.37693,-0.0492 0.96691,-0.0492 0.55721,0 0.93414,0.0492 0.37693,0.0328 0.57359,0.13111 0.21305,0.0983 0.29499,0.22944 0.0819,0.1311 0.0819,0.29499 z" />
        <path
           id="path868"
           style="font-style:normal;font-variant:normal;font-weight:bold;font-stretch:normal;font-family:Calibri;-inkscape-font-specification:'Calibri Bold';letter-spacing:3.04230571px;fill:#031f4b;fill-opacity:1;stroke-width:0.83908457"
           d="m -274.36911,166.57675 q 0,0.16389 -0.11472,0.29499 -0.0983,0.13111 -0.34415,0.21305 -0.24583,0.0819 -0.65554,0.13111 -0.40971,0.0492 -1.04886,0.0492 -0.62275,0 -1.04885,-0.0492 -0.40971,-0.0492 -0.65554,-0.13111 -0.24582,-0.0819 -0.36054,-0.21305 -0.0983,-0.1311 -0.0983,-0.29499 v -20.02659 q 0,-0.16388 0.0983,-0.29499 0.11472,-0.13111 0.36054,-0.21305 0.26222,-0.0819 0.67193,-0.13111 0.40971,-0.0492 1.03246,-0.0492 0.63915,0 1.04886,0.0492 0.40971,0.0492 0.65554,0.13111 0.24582,0.0819 0.34415,0.21305 0.11472,0.13111 0.11472,0.29499 z" />
        <path
           id="path870"
           style="font-style:normal;font-variant:normal;font-weight:bold;font-stretch:normal;font-family:Calibri;-inkscape-font-specification:'Calibri Bold';letter-spacing:3.04230571px;fill:#031f4b;fill-opacity:1;stroke-width:0.83908457"
           d="m -251.56242,165.54428 q 0.29499,0.5736 0.37693,0.91775 0.0983,0.34416 -0.0983,0.52443 -0.19666,0.18027 -0.72109,0.22944 -0.50804,0.0492 -1.42579,0.0492 -0.77025,0 -1.21274,-0.0328 -0.44248,-0.0328 -0.7047,-0.0983 -0.24582,-0.082 -0.36054,-0.21305 -0.11472,-0.13111 -0.19666,-0.32777 l -3.98237,-7.65337 -3.96599,7.65337 q -0.0983,0.19666 -0.21305,0.32777 -0.11472,0.1311 -0.37693,0.21305 -0.24583,0.0656 -0.7047,0.0983 -0.44249,0.0328 -1.17996,0.0328 -0.8522,0 -1.32746,-0.0492 -0.45888,-0.0492 -0.62276,-0.22944 -0.16388,-0.18027 -0.0655,-0.52443 0.0983,-0.34415 0.4097,-0.91775 l 5.0804,-9.25943 -4.71985,-8.70222 q -0.29499,-0.58998 -0.40971,-0.93414 -0.0983,-0.36054 0.0819,-0.52443 0.19666,-0.18027 0.7047,-0.21305 0.50804,-0.0492 1.44218,-0.0492 0.77025,0 1.21274,0.0328 0.45887,0.0328 0.72109,0.11472 0.26221,0.0656 0.36054,0.19666 0.11472,0.1311 0.21305,0.32776 l 3.72016,7.01423 3.62183,-7.01423 q 0.0983,-0.19666 0.19666,-0.32776 0.11472,-0.13111 0.34416,-0.19666 0.24582,-0.082 0.65553,-0.11472 0.4261,-0.0328 1.16357,-0.0328 0.81942,0 1.29469,0.0492 0.47526,0.0328 0.65553,0.21305 0.18027,0.18028 0.0819,0.52443 -0.0819,0.34416 -0.36054,0.93414 l -4.71985,8.65306 z" />
      </g>
    </g>
  </g>
</svg>
